<?xml version="1.0" standalone="no"?>
<!DOCTYPE svg PUBLIC "-//W3C//DTD SVG 20010904//EN"
 "http://www.w3.org/TR/2001/REC-SVG-20010904/DTD/svg10.dtd">
<svg version="1.0" xmlns="http://www.w3.org/2000/svg"
 width="200.000000pt" height="200.000000pt" viewBox="0 0 200.000000 200.000000"
 preserveAspectRatio="xMidYMid meet">

<g transform="translate(0.000000,200.000000) scale(0.100000,-0.100000)"
fill="#000000" stroke="none">
<path d="M982 1385 c-55 -49 -63 -52 -82 -30 -7 8 -16 15 -21 15 -4 0 -80
-107 -169 -237 -158 -234 -160 -237 -141 -257 18 -21 18 -21 -30 -61 -26 -22
-48 -43 -48 -47 -1 -5 42 -8 94 -8 l95 0 181 90 c139 70 180 95 177 108 -6 30
-83 27 -166 -7 -39 -16 -72 -28 -72 -25 0 2 52 83 117 179 l116 175 114 -170
113 -170 115 0 115 0 -28 39 -27 38 -33 -28 c-18 -16 -36 -29 -40 -29 -4 1
-29 21 -57 45 l-50 44 50 44 50 44 -78 117 c-42 64 -81 116 -86 116 -5 0 -14
-7 -21 -15 -18 -22 -27 -19 -85 30 l-53 45 -50 -45z"/>
<path d="M97 542 c-26 -27 -44 -51 -41 -55 4 -4 13 -2 21 4 8 8 41 10 88 7 41
-3 75 -2 75 1 0 7 -83 91 -90 91 -3 0 -27 -22 -53 -48z m58 -20 c-34 -4 -42 3
-25 23 12 14 15 14 33 -2 19 -18 19 -18 -8 -21z"/>
<path d="M392 538 c3 -52 20 -69 26 -28 3 18 11 20 77 20 58 0 74 3 79 16 13
33 -13 44 -101 44 l-84 0 3 -52z m153 22 c4 -6 -18 -10 -59 -10 -37 0 -66 4
-66 10 0 6 26 10 59 10 33 0 63 -4 66 -10z"/>
<path d="M730 540 c0 -50 13 -67 23 -30 4 16 15 19 78 22 63 3 74 6 77 22 6
28 -15 36 -100 36 l-78 0 0 -50z m155 20 c4 -6 -20 -10 -65 -10 -45 0 -69 4
-65 10 3 6 33 10 65 10 32 0 62 -4 65 -10z"/>
<path d="M1070 575 c-26 -32 -5 -45 75 -45 98 0 98 -18 0 -22 -42 -2 -75 -7
-75 -13 0 -5 33 -11 72 -13 85 -3 121 13 102 45 -9 14 -26 19 -83 21 -95 4
-83 22 15 22 43 0 74 4 74 10 0 17 -165 13 -180 -5z"/>
<path d="M1400 556 c0 -46 33 -69 97 -68 55 0 96 32 91 71 -5 37 -28 39 -28 2
0 -35 -22 -51 -73 -51 -38 0 -53 13 -59 49 -5 40 -28 38 -28 -3z"/>
<path d="M1744 575 c-14 -35 3 -45 76 -45 40 0 70 -4 70 -10 0 -6 -32 -10 -76
-10 -56 0 -75 -3 -72 -12 6 -17 130 -23 158 -8 24 13 26 45 4 54 -9 3 -45 6
-80 6 -41 0 -63 4 -59 10 3 6 40 10 81 10 43 0 74 4 74 10 0 6 -35 10 -85 10
-67 0 -87 -3 -91 -15z"/>
</g>
</svg>
